# Blender 3.3.1
# www.blender.org
mtllib axe_001.mtl
o axe_001
v -0.015992 0.143889 -0.027699
v -0.031984 0.143889 -0.000000
v -0.015992 0.143889 0.027698
v 0.015991 0.143889 0.027698
v 0.031983 0.143889 -0.000000
v -0.150116 0.909946 0.021187
v -0.150116 0.855625 0.021187
v 0.195299 0.909946 0.014381
v 0.195299 0.909946 -0.014367
v -0.150116 0.909946 -0.021173
v -0.150116 0.855625 -0.021173
v 0.045361 0.098270 -0.000000
v 0.022680 0.098270 0.039284
v -0.022681 0.098270 0.039284
v -0.045362 0.098270 -0.000000
v -0.022681 0.098270 -0.039284
v 0.022680 0.098270 -0.039284
v 0.028986 -0.114565 0.050205
v -0.028986 -0.114565 0.050205
v -0.057972 -0.114565 -0.000000
v -0.028986 -0.114565 -0.050205
v 0.028986 -0.114565 -0.050205
v 0.057972 -0.114565 -0.000000
v 0.049666 -0.106395 -0.000000
v 0.024833 -0.106395 0.043012
v -0.024834 -0.106395 0.043012
v -0.049667 -0.106395 -0.000000
v -0.024834 -0.106395 -0.043013
v 0.024833 -0.106395 -0.043013
v 0.015991 0.143889 -0.027699
v 0.040622 0.308117 -0.000000
v 0.048276 0.300075 -0.000000
v 0.020311 0.308117 0.035180
v 0.024138 0.300075 0.041808
v -0.020312 0.308117 0.035180
v -0.024139 0.300075 0.041808
v -0.040623 0.308117 -0.000000
v -0.048277 0.300075 -0.000000
v -0.020312 0.308117 -0.035180
v -0.024139 0.300075 -0.041809
v 0.020311 0.308117 -0.035180
v 0.024138 0.300075 -0.041809
v 0.047874 -0.154622 -0.000000
v 0.057972 -0.144169 -0.000000
v 0.023937 -0.154622 0.041460
v 0.028986 -0.144169 0.050205
v -0.023937 -0.154622 0.041460
v -0.028986 -0.144169 0.050205
v -0.047875 -0.154622 -0.000000
v -0.057972 -0.144169 -0.000000
v -0.023937 -0.154622 -0.041460
v -0.028986 -0.144169 -0.050205
v 0.023937 -0.154622 -0.041460
v 0.028986 -0.144169 -0.050205
v -0.150116 0.783230 0.021187
v -0.150116 0.780103 0.018812
v -0.150116 0.970390 -0.021173
v -0.150116 0.973381 -0.018790
v -0.109792 0.804614 -0.029658
v -0.109727 0.801658 -0.027282
v -0.109705 0.965632 -0.027265
v -0.109792 0.962688 -0.029658
v -0.109792 0.962688 0.029672
v -0.109705 0.965632 0.027278
v -0.109792 0.804614 0.029672
v -0.109727 0.801658 0.027295
v 0.072687 0.961323 -0.045982
v 0.072822 0.964268 -0.044011
v -0.066550 0.961342 -0.049974
v -0.066593 0.964268 -0.047883
v -0.066550 0.817208 -0.049974
v -0.066582 0.814250 -0.047612
v 0.072687 0.817748 -0.045982
v 0.072588 0.815223 -0.043612
v 0.072687 0.817748 0.045995
v 0.072588 0.815223 0.043626
v -0.066582 0.814250 0.047626
v -0.066550 0.817208 0.049987
v -0.066550 0.961342 0.049987
v -0.066593 0.964268 0.047897
v 0.072687 0.961323 0.045995
v 0.072822 0.964268 0.044025
v -0.209370 0.994405 0.000101
v -0.219185 0.994531 0.000027
v -0.219030 0.749910 0.000027
v -0.209370 0.749966 0.000101
v -0.150116 0.973381 0.018807
v -0.150116 0.970394 0.021187
v -0.150116 0.780103 -0.018796
v -0.150116 0.783237 -0.021173
v -0.109792 0.909946 -0.029658
v -0.109792 0.855625 -0.029658
v -0.109792 0.909946 0.029672
v -0.109792 0.855625 0.029672
v 0.072687 0.909946 -0.045982
v 0.072687 0.855625 -0.045982
v -0.066550 0.909946 -0.049974
v -0.066550 0.855625 -0.049974
v 0.072687 0.909946 0.045995
v 0.072687 0.855625 0.045995
v -0.066550 0.909946 0.049987
v -0.066550 0.855625 0.049987
v -0.235829 0.844536 0.000026
v 0.195299 0.936997 -0.011473
v 0.195299 0.934715 -0.014367
v 0.195299 0.936997 0.011487
v 0.195299 0.934715 0.014381
v -0.190548 0.756531 0.004195
v -0.190885 0.759708 0.006610
v -0.190548 0.987840 0.004195
v -0.190971 0.984692 0.006615
v -0.202127 0.847870 0.006680
v -0.190548 0.755947 -0.003629
v -0.190905 0.758743 -0.006004
v -0.202142 0.847551 -0.006071
v -0.190992 0.985654 -0.006008
v -0.190548 0.988424 -0.003629
v 0.136874 0.955515 0.023485
v 0.136874 0.958304 0.021110
v 0.136874 0.855434 0.020991
v 0.136874 0.857478 0.023485
v 0.136874 0.958304 -0.021097
v 0.136874 0.955515 -0.023471
v 0.136874 0.855434 -0.020977
v 0.136874 0.857478 -0.023472
v 0.195299 0.896475 0.012344
v 0.195299 0.900275 0.014381
v 0.136874 0.909946 -0.023473
v 0.195299 0.900275 -0.014367
v 0.195299 0.896475 -0.012331
v 0.136874 0.909946 0.023487
v 0.244316 0.902343 0.000007
v -0.014237 0.982095 -0.024659
v -0.015992 0.979055 -0.027699
v -0.028474 0.982095 -0.000000
v -0.031984 0.979055 -0.000000
v -0.014237 0.982095 0.024658
v -0.015992 0.979055 0.027698
v 0.014236 0.982095 0.024658
v 0.015991 0.979055 0.027698
v 0.028473 0.982095 -0.000000
v 0.031983 0.979055 -0.000000
v 0.014236 0.982095 -0.024659
v 0.015991 0.979055 -0.027699
v -0.235292 0.923403 0.000026
v -0.235828 0.918616 0.000026
v -0.201929 0.917683 0.006679
v -0.201946 0.918001 -0.006069
v -0.218902 0.919517 -0.002995
v -0.218902 0.919353 0.003370
vn 0.5000 -0.0000 -0.8660
vn 0.5000 0.0050 -0.8660
vn 1.0000 0.0050 -0.0000
vn 1.0000 -0.0000 -0.0000
vn 0.5000 0.0050 0.8660
vn 0.5000 -0.0000 0.8660
vn -0.0897 -0.0000 -0.9960
vn -0.0899 0.0380 -0.9952
vn 0.1265 0.0384 -0.9912
vn 0.1267 -0.0000 -0.9919
vn -0.3170 -0.0000 0.9484
vn -0.3236 -0.0000 0.9462
vn -0.2503 0.0075 0.9682
vn -0.2521 -0.0068 0.9677
vn 0.2740 0.0510 -0.9604
vn 0.2680 -0.0000 -0.9634
vn 0.2875 0.9403 0.1824
vn 0.2203 0.9717 0.0847
vn 0.2213 0.9723 -0.0747
vn 0.2926 0.9456 -0.1422
vn -0.2937 -0.0406 0.9550
vn -0.2445 -0.0413 0.9688
vn 0.1550 0.9851 0.0747
vn 0.2680 -0.0000 0.9634
vn 0.2739 0.0510 0.9604
vn 0.1265 0.0384 0.9912
vn 0.1267 -0.0000 0.9919
vn 0.1041 -0.0685 -0.9922
vn 0.1133 -0.0000 -0.9936
vn 0.3062 -0.0407 -0.9511
vn 0.0275 0.9990 0.0340
vn 0.0274 0.9990 -0.0340
vn 0.0035 0.9995 -0.0326
vn 0.0035 0.9995 0.0326
vn -0.0897 -0.0000 0.9960
vn -0.0899 0.0380 0.9952
vn -0.3174 0.0385 0.9475
vn -0.0991 -0.0554 0.9935
vn -0.0953 -0.0000 0.9954
vn 0.3062 -0.0407 0.9511
vn 0.1133 -0.0000 0.9936
vn 0.1041 -0.0685 0.9922
vn 0.0744 0.9961 -0.0464
vn 0.0744 0.9961 0.0464
vn -0.3236 -0.0000 -0.9462
vn -0.3175 0.0385 -0.9475
vn -0.2464 -0.0137 0.9691
vn -0.2671 0.0132 0.9636
vn 0.5000 0.0033 -0.8660
vn 0.4999 0.0208 -0.8658
vn 0.9998 0.0208 -0.0000
vn 1.0000 0.0033 -0.0000
vn -0.5000 0.0036 0.8660
vn -0.4999 0.0208 0.8658
vn -0.9998 0.0208 -0.0000
vn -1.0000 0.0033 -0.0000
vn -0.4999 0.0208 -0.8658
vn -0.5000 0.0033 -0.8660
vn 0.4999 0.0208 0.8658
vn 0.5000 0.0033 0.8660
vn 0.4867 -0.2292 -0.8430
vn 0.4896 0.2030 -0.8480
vn 0.9792 0.2030 -0.0000
vn 0.9734 -0.2292 -0.0000
vn 0.4437 -0.8791 0.1739
vn 0.4490 -0.8831 -0.1364
vn 0.4664 -0.8818 -0.0701
vn 0.4655 -0.8815 0.0792
vn -0.2741 0.0134 -0.9616
vn -0.2470 0.0569 -0.9673
vn -0.2544 0.0489 -0.9659
vn -0.2566 0.0077 -0.9665
vn 0.1776 -0.0000 -0.9841
vn 0.2175 0.0764 -0.9731
vn 0.2814 -0.0000 -0.9596
vn -0.2455 -0.0462 0.9683
vn 0.2175 0.0764 0.9731
vn 0.1776 -0.0000 0.9841
vn 0.2814 -0.0000 0.9596
vn 0.2115 -0.0767 0.9744
vn 0.0618 -0.9976 -0.0311
vn 0.0619 -0.9976 0.0311
vn 0.3426 -0.9384 0.0446
vn 0.3425 -0.9385 -0.0446
vn -0.1793 0.0677 -0.9815
vn -0.1813 0.0176 -0.9833
vn -0.1882 0.0388 -0.9814
vn -0.2937 -0.0406 -0.9550
vn -0.3170 -0.0000 -0.9484
vn -0.0953 -0.0000 -0.9954
vn -0.0991 -0.0554 -0.9935
vn 0.1620 -0.9863 -0.0299
vn 0.1620 -0.9863 0.0299
vn 0.1909 0.9803 0.0511
vn 0.1909 0.9803 -0.0511
vn -0.1993 -0.0192 0.9798
vn -0.1972 -0.0484 0.9792
vn -0.2484 0.0486 0.9674
vn -0.1833 -0.0176 -0.9829
vn -0.1773 0.0004 -0.9842
vn -0.2461 -0.0132 -0.9692
vn 0.1531 -0.9854 0.0750
vn -0.1820 -0.0458 -0.9822
vn -0.2455 -0.0453 -0.9683
vn -0.2586 -0.0070 -0.9659
vn -0.2510 -0.0415 -0.9671
vn -0.1966 0.0192 0.9803
vn -0.1938 -0.0000 0.9811
vn 0.4160 0.9068 -0.0687
vn 0.4160 0.9068 0.0687
vn 0.5773 0.8165 -0.0000
vn 0.5520 -0.8328 -0.0411
vn 0.5520 -0.8328 0.0411
vn 0.2115 -0.0767 -0.9744
vn 0.5011 -0.8614 -0.0832
vn 0.5011 -0.8614 0.0832
vn 0.1189 -0.9929 -0.0000
vn 0.4989 0.0640 -0.8643
vn 0.9980 0.0640 -0.0000
vn -0.4991 0.0640 -0.8642
vn -0.9980 0.0640 0.0002
vn -0.4989 0.0640 0.8643
vn 0.4990 0.0640 0.8642
vn -0.0689 -0.9904 -0.1194
vn 0.0690 -0.9904 -0.1194
vn 0.0690 -0.9904 0.1194
vn -0.4867 -0.2292 0.8430
vn -0.4896 0.2030 0.8480
vn -0.9792 0.2030 -0.0000
vn -0.9734 -0.2292 -0.0000
vn -0.4896 0.2030 -0.8480
vn -0.4867 -0.2292 -0.8430
vn 0.4867 -0.2292 0.8430
vn 0.4896 0.2030 0.8480
vn -0.5000 0.0050 0.8660
vn -0.5000 -0.0000 0.8660
vn -0.5000 -0.0000 -0.8660
vn -0.5000 0.0050 -0.8660
vn -1.0000 0.0050 -0.0000
vn -1.0000 -0.0000 -0.0000
vn 0.0630 0.9920 0.1091
vn -0.0630 0.9920 0.1091
vn -0.1260 0.9920 -0.0002
vn -0.0629 0.9920 -0.1091
vn 0.0630 0.9920 -0.1091
vn 0.1260 0.9920 0.0002
vn 0.1379 -0.9904 -0.0000
vn -0.0690 -0.9904 0.1194
vn -0.1379 -0.9904 -0.0000
vn -0.2468 0.0581 0.9673
vn -0.1946 0.0715 0.9783
vn 0.2682 -0.4551 -0.8491
vn 0.2682 -0.4551 0.8491
vn 0.5736 0.6433 0.5072
vn 0.5736 0.6433 -0.5072
vn 0.0694 0.9976 -0.0000
vn 0.0346 0.9976 0.0601
vn -0.0347 0.9976 0.0600
vn -0.0694 0.9976 -0.0000
vn -0.0346 0.9976 -0.0601
vn 0.0347 0.9976 -0.0600
vn -0.2045 0.0427 0.9779
vn -0.2350 -0.9717 -0.0250
vn -0.0486 0.9985 0.0257
vt 0.687574 0.393386
vt 0.687574 0.393386
vt 0.687574 0.393386
vt 0.687574 0.393386
vt 0.687574 0.393386
vt 0.021484 0.664062
vt 0.021484 0.664062
vt 0.021484 0.664062
vt 0.021484 0.664062
vt 0.021484 0.664062
vt 0.021484 0.664062
vt 0.871332 0.624932
vt 0.871332 0.624932
vt 0.871332 0.624932
vt 0.871332 0.624932
vt 0.871332 0.624932
vt 0.871332 0.624932
vt 0.871332 0.624932
vt 0.871332 0.624932
vt 0.871332 0.624932
vt 0.871332 0.624932
vt 0.871332 0.624932
vt 0.871332 0.624932
vt 0.871332 0.624932
vt 0.871332 0.624932
vt 0.871332 0.624932
vt 0.871332 0.624932
vt 0.871332 0.624932
vt 0.871332 0.624932
vt 0.687574 0.393386
vt 0.871332 0.624932
vt 0.871332 0.624932
vt 0.871332 0.624932
vt 0.871332 0.624932
vt 0.871332 0.624932
vt 0.871332 0.624932
vt 0.871332 0.624932
vt 0.871332 0.624932
vt 0.871332 0.624932
vt 0.871332 0.624932
vt 0.871332 0.624932
vt 0.871332 0.624932
vt 0.871332 0.624932
vt 0.871332 0.624932
vt 0.871332 0.624932
vt 0.871332 0.624932
vt 0.871332 0.624932
vt 0.871332 0.624932
vt 0.871332 0.624932
vt 0.871332 0.624932
vt 0.871332 0.624932
vt 0.871332 0.624932
vt 0.871332 0.624932
vt 0.871332 0.624932
vt 0.021484 0.664062
vt 0.021484 0.664062
vt 0.021484 0.664062
vt 0.021484 0.664062
vt 0.021484 0.664062
vt 0.021484 0.664062
vt 0.021484 0.664062
vt 0.021484 0.664062
vt 0.021484 0.664062
vt 0.021484 0.664062
vt 0.021484 0.664062
vt 0.021484 0.664062
vt 0.021484 0.664062
vt 0.021484 0.664062
vt 0.021484 0.664062
vt 0.021484 0.664062
vt 0.021484 0.664062
vt 0.021484 0.664062
vt 0.021484 0.664062
vt 0.021484 0.664062
vt 0.021484 0.664062
vt 0.021484 0.664062
vt 0.021484 0.664062
vt 0.021484 0.664062
vt 0.021484 0.664062
vt 0.021484 0.664062
vt 0.021484 0.664062
vt 0.021484 0.664062
vt 0.859106 0.708291
vt 0.859106 0.708291
vt 0.859106 0.708291
vt 0.859106 0.708291
vt 0.021484 0.664062
vt 0.021484 0.664062
vt 0.021484 0.664062
vt 0.021484 0.664062
vt 0.021484 0.664062
vt 0.021484 0.664062
vt 0.021484 0.664062
vt 0.021484 0.664062
vt 0.021484 0.664062
vt 0.021484 0.664062
vt 0.021484 0.664062
vt 0.021484 0.664062
vt 0.021484 0.664062
vt 0.021484 0.664062
vt 0.021484 0.664062
vt 0.021484 0.664062
vt 0.859106 0.708291
vt 0.021484 0.664062
vt 0.021484 0.664062
vt 0.021484 0.664062
vt 0.021484 0.664062
vt 0.021484 0.664062
vt 0.859106 0.708291
vt 0.021484 0.664062
vt 0.859106 0.708291
vt 0.021484 0.664062
vt 0.859106 0.708291
vt 0.021484 0.664062
vt 0.859106 0.708291
vt 0.021484 0.664062
vt 0.859106 0.708291
vt 0.021484 0.664062
vt 0.859106 0.708291
vt 0.021484 0.664062
vt 0.859106 0.708291
vt 0.021484 0.664062
vt 0.859106 0.708291
vt 0.021484 0.664062
vt 0.859106 0.708291
vt 0.021484 0.664062
vt 0.859106 0.708291
vt 0.021484 0.664062
vt 0.021484 0.664062
vt 0.021484 0.664062
vt 0.021484 0.664062
vt 0.021484 0.664062
vt 0.021484 0.664062
vt 0.021484 0.664062
vt 0.021484 0.664062
vt 0.021484 0.664062
vt 0.021484 0.664062
vt 0.021484 0.664062
vt 0.021484 0.664062
vt 0.021484 0.664062
vt 0.021484 0.664062
vt 0.021484 0.664062
vt 0.687574 0.393386
vt 0.687574 0.393386
vt 0.687574 0.393386
vt 0.687574 0.393386
vt 0.687574 0.393386
vt 0.687574 0.393386
vt 0.687574 0.393386
vt 0.687574 0.393386
vt 0.687574 0.393386
vt 0.687574 0.393386
vt 0.687574 0.393386
vt 0.687574 0.393386
vt 0.859106 0.708291
vt 0.859106 0.708291
vt 0.021484 0.664062
vt 0.859106 0.708291
vt 0.021484 0.664062
vt 0.859106 0.708291
vt 0.859106 0.708291
vt 0.859106 0.708291
s 1
usemtl Material
f 30/30/1 144/154/2 142/152/3 5/5/4
f 5/5/4 142/152/3 140/150/5 4/4/6
f 97/97/7 69/69/8 67/67/9 95/95/10
f 94/94/11 93/93/12 6/6/13 7/7/14
f 95/95/10 67/67/9 123/133/15 128/138/16
f 110/112/17 87/87/18 58/58/19 117/126/20
f 65/65/21 94/94/11 7/7/14 55/55/22
f 117/127/20 83/83/23 110/113/17
f 131/141/24 118/128/25 81/81/26 99/99/27
f 73/73/28 96/96/29 125/135/30
f 82/82/31 68/68/32 70/70/33 80/80/34
f 101/101/35 79/79/36 63/63/37 93/93/12
f 78/78/38 102/102/39 94/94/11 65/65/21
f 121/131/40 100/100/41 75/75/42
f 80/80/34 70/70/33 61/61/43 64/64/44
f 91/91/45 62/62/46 69/69/8 97/97/7
f 112/116/47 7/7/14 6/6/13 147/157/48
f 17/17/49 42/42/50 32/32/51 12/12/52
f 14/14/53 36/36/54 38/38/55 15/15/56
f 15/15/56 38/38/55 40/40/57 16/16/58
f 16/16/58 40/40/57 42/42/50 17/17/49
f 12/12/52 32/32/51 34/34/59 13/13/60
f 13/13/60 34/34/59 36/36/54 14/14/53
f 54/54/61 22/22/62 23/23/63 44/44/64
f 108/108/65 113/118/66 89/89/67 56/56/68
f 148/159/69 116/124/70 57/57/71 10/10/72
f 9/9/73 105/105/74 132/142/75
f 109/110/76 55/55/22 7/7/14 112/116/47
f 107/107/77 8/8/78 132/142/79
f 91/91/45 10/10/72 57/57/71 62/62/46
f 96/96/29 95/95/10 128/138/16 125/135/30
f 127/137/80 8/8/78 131/141/24 121/131/40
f 72/72/81 77/77/82 66/66/83 60/60/84
f 102/102/39 101/101/35 93/93/12 94/94/11
f 99/99/27 81/81/26 79/79/36 101/101/35
f 84/84/85 116/125/70 149/161/86 145/155/87
f 75/75/42 100/100/41 102/102/39 78/78/38
f 100/100/41 99/99/27 101/101/35 102/102/39
f 59/59/88 92/92/89 98/98/90 71/71/91
f 92/92/89 91/91/45 97/97/7 98/98/90
f 74/74/92 76/76/93 77/77/82 72/72/81
f 121/131/40 131/141/24 99/99/27 100/100/41
f 119/129/94 122/132/95 68/68/32 82/82/31
f 109/111/76 112/117/47 103/103/96 85/85/97
f 93/93/12 63/63/37 88/88/98 6/6/13
f 103/103/99 146/156/100 149/161/86 115/123/101
f 86/86/102 113/119/66 108/109/65
f 85/85/103 103/103/99 115/123/101 114/121/104
f 60/60/84 66/66/83 56/56/68 89/89/67
f 64/64/44 61/61/43 58/58/19 87/87/18
f 114/120/104 115/122/101 11/11/105 90/90/106
f 92/92/89 11/11/105 10/10/72 91/91/45
f 112/117/47 150/162/107 146/156/108 103/103/96
f 104/104/109 106/106/110 132/142/111
f 98/98/90 97/97/7 95/95/10 96/96/29
f 124/134/112 120/130/113 76/76/93 74/74/92
f 71/71/91 98/98/90 96/96/29 73/73/28
f 9/9/73 129/139/114 125/135/30 128/138/16
f 120/130/113 124/134/112 130/140/115 126/136/116
f 8/8/78 127/137/80 132/142/79
f 129/139/114 9/9/73 132/142/75
f 122/132/95 119/129/94 106/106/110 104/104/109
f 126/136/116 130/140/115 132/142/117
f 118/128/25 131/141/24 8/8/78 107/107/77
f 128/138/16 123/133/15 105/105/74 9/9/73
f 29/29/118 17/17/49 12/12/52 24/24/119
f 28/28/120 16/16/58 17/17/49 29/29/118
f 27/27/121 15/15/56 16/16/58 28/28/120
f 26/26/122 14/14/53 15/15/56 27/27/121
f 25/25/123 13/13/60 14/14/53 26/26/122
f 24/24/119 12/12/52 13/13/60 25/25/123
f 51/51/124 53/53/125 45/45/126
f 48/48/127 19/19/128 20/20/129 50/50/130
f 50/50/130 20/20/129 21/21/131 52/52/132
f 52/52/132 21/21/131 22/22/62 54/54/61
f 46/46/133 18/18/134 19/19/128 48/48/127
f 23/23/63 24/24/119 25/25/123 18/18/134
f 18/18/134 25/25/123 26/26/122 19/19/128
f 19/19/128 26/26/122 27/27/121 20/20/129
f 20/20/129 27/27/121 28/28/120 21/21/131
f 21/21/131 28/28/120 29/29/118 22/22/62
f 22/22/62 29/29/118 24/24/119 23/23/63
f 4/4/6 140/150/5 138/148/135 3/3/136
f 1/1/137 134/144/138 144/154/2 30/30/1
f 3/3/136 138/148/135 136/146/139 2/2/140
f 34/34/59 33/33/141 35/35/142 36/36/54
f 36/36/54 35/35/142 37/37/143 38/38/55
f 38/38/55 37/37/143 39/39/144 40/40/57
f 40/40/57 39/39/144 41/41/145 42/42/50
f 42/42/50 41/41/145 31/31/146 32/32/51
f 46/46/133 45/45/126 43/43/147 44/44/64
f 33/33/141 31/31/146 41/41/145 39/39/144 37/37/143 35/35/142
f 48/48/127 47/47/148 45/45/126 46/46/133
f 50/50/130 49/49/149 47/47/148 48/48/127
f 52/52/132 51/51/124 49/49/149 50/50/130
f 54/54/61 53/53/125 51/51/124 52/52/132
f 44/44/64 43/43/147 53/53/125 54/54/61
f 44/44/64 23/23/63 18/18/134 46/46/133
f 66/66/83 65/65/21 55/55/22 56/56/68
f 58/58/19 57/57/71 116/124/70 117/126/20
f 114/120/104 90/90/106 89/89/67 113/118/66
f 111/114/150 88/88/98 87/87/18 110/112/17
f 147/157/48 6/6/13 88/88/98 111/114/150
f 87/87/18 88/88/98 63/63/37 64/64/44
f 61/61/43 62/62/46 57/57/71 58/58/19
f 92/92/89 59/59/88 90/90/106 11/11/105
f 63/63/37 79/79/36 80/80/34 64/64/44
f 71/71/91 73/73/28 74/74/92 72/72/81
f 79/79/36 81/81/26 82/82/31 80/80/34
f 59/59/88 71/71/91 72/72/81 60/60/84
f 75/75/42 78/78/38 77/77/82 76/76/93
f 81/81/26 118/128/25 119/129/94 82/82/31
f 77/77/82 78/78/38 65/65/21 66/66/83
f 83/83/23 84/84/151 111/115/150 110/113/17
f 73/73/28 125/135/30 124/134/112 74/74/92
f 67/67/9 69/69/8 70/70/33 68/68/32
f 69/69/8 62/62/46 61/61/43 70/70/33
f 85/85/103 114/121/104 113/119/66 86/86/102
f 108/108/65 56/56/68 55/55/22 109/110/76
f 118/128/25 107/107/77 106/106/110 119/129/94
f 108/109/65 109/111/76 85/85/97 86/86/102
f 116/125/70 84/84/85 83/83/23 117/127/20
f 115/122/101 148/159/69 10/10/72 11/11/105
f 120/130/113 121/131/40 75/75/42 76/76/93
f 122/132/95 123/133/15 67/67/9 68/68/32
f 120/130/113 126/136/116 127/137/80 121/131/40
f 122/132/95 104/104/109 105/105/74 123/133/15
f 129/139/114 130/140/115 124/134/112 125/135/30
f 132/142/152 130/140/115 129/139/114
f 126/136/116 132/142/153 127/137/80
f 132/142/154 106/106/110 107/107/77
f 104/104/109 132/142/155 105/105/74
f 2/2/140 136/146/139 134/144/138 1/1/137
f 142/152/3 141/151/156 139/149/157 140/150/5
f 140/150/5 139/149/157 137/147/158 138/148/135
f 136/146/139 135/145/159 133/143/160 134/144/138
f 134/144/138 133/143/160 143/153/161 144/154/2
f 144/154/2 143/153/161 141/151/156 142/152/3
f 141/151/156 143/153/161 133/143/160
f 59/59/88 60/60/84 89/89/67 90/90/106
f 116/125/70 148/160/69 149/161/86
f 84/84/151 145/155/162 150/162/107 111/115/150
f 150/162/163 145/155/163 149/161/163
f 150/162/107 112/117/47 147/158/48
f 115/123/101 149/161/86 148/160/69
f 146/156/164 150/162/164 149/161/164
f 111/115/150 150/162/107 147/158/48
f 32/32/51 31/31/146 33/33/141 34/34/59
f 138/148/135 137/147/158 135/145/159 136/146/139
f 133/143/160 135/145/159 141/151/156
f 135/145/159 137/147/158 141/151/156
f 137/147/158 139/149/157 141/151/156
f 53/53/125 43/43/147 45/45/126
f 45/45/126 47/47/148 49/49/149
f 49/49/149 51/51/124 45/45/126
