# Blender 3.3.1
# www.blender.org
mtllib baseball_bat_001.mtl
o baseball_bat_001
v -0.000000 -0.208731 -0.022863
v -0.000000 -0.000000 -0.022863
v 0.019799 -0.208731 -0.011431
v 0.019799 -0.000000 -0.011431
v 0.019799 -0.208731 0.011431
v 0.019799 -0.000000 0.011431
v -0.000000 -0.208731 0.022863
v -0.000000 -0.000000 0.022863
v -0.019800 -0.208731 0.011431
v -0.019800 -0.000000 0.011431
v -0.019800 -0.208731 -0.011431
v -0.019800 -0.000000 -0.011431
v -0.000000 0.295612 -0.030292
v 0.026234 0.295612 -0.015146
v 0.026234 0.295612 0.015146
v -0.000000 0.295612 0.030292
v -0.026234 0.295612 0.015146
v -0.026234 0.295612 -0.015146
v -0.000000 -0.223736 -0.036208
v 0.031357 -0.223736 -0.018104
v 0.031357 -0.223736 0.018104
v -0.000000 -0.223736 0.036208
v -0.031357 -0.223736 0.018104
v -0.031357 -0.223736 -0.018104
v -0.000000 -0.241388 -0.028680
v 0.024837 -0.241388 -0.014340
v 0.024837 -0.241388 0.014340
v -0.000000 -0.241388 0.028680
v -0.024838 -0.241388 0.014340
v -0.024838 -0.241388 -0.014340
v -0.000000 0.441543 -0.048997
v -0.000000 0.860206 -0.048997
v 0.034646 0.441543 -0.034646
v 0.034646 0.860206 -0.034646
v 0.048997 0.441543 0.000000
v 0.048997 0.860206 0.000000
v 0.034646 0.441543 0.034646
v 0.034646 0.860206 0.034646
v -0.000000 0.441543 0.048997
v -0.000000 0.860206 0.048997
v -0.034647 0.441543 0.034646
v -0.034647 0.860206 0.034646
v -0.048997 0.441543 -0.000000
v -0.048997 0.860206 -0.000000
v -0.034647 0.441543 -0.034646
v -0.034647 0.860206 -0.034646
v -0.000000 0.873702 -0.039086
v 0.027638 0.873702 -0.027638
v 0.039086 0.873702 0.000000
v 0.027638 0.873702 0.027638
v -0.000000 0.873702 0.039086
v -0.027639 0.873702 0.027638
v -0.039087 0.873702 -0.000000
v -0.027639 0.873702 -0.027638
v 0.034646 0.474012 -0.034646
v 0.048997 0.474012 0.000000
v 0.034646 0.474012 0.034646
v -0.000000 0.474012 0.048997
v -0.034647 0.474012 0.034646
v -0.048997 0.474012 -0.000000
v -0.034647 0.474012 -0.034646
v -0.000000 0.474012 -0.048997
v -0.000000 -0.237369 -0.036208
v -0.031357 -0.237369 -0.018104
v -0.031357 -0.237369 0.018104
v -0.000000 -0.237369 0.036208
v 0.031357 -0.237369 0.018104
v 0.031357 -0.237369 -0.018104
vn -0.0000 -0.0156 -0.9999
vn -0.8659 -0.0156 -0.4999
vn -0.8730 -0.0640 -0.4836
vn -0.0000 -0.0722 -0.9974
vn -0.0000 -0.0000 -1.0000
vn 0.8659 -0.0156 -0.4999
vn 0.8660 -0.0000 -0.5000
vn 0.8659 -0.0156 0.4999
vn 0.8660 -0.0000 0.5000
vn -0.0000 -0.0156 0.9999
vn -0.0000 -0.0000 1.0000
vn -0.8659 -0.0157 0.4999
vn -0.8660 -0.0000 0.5000
vn -0.8660 -0.0000 -0.5000
vn -0.6599 -0.0978 -0.7450
vn -0.0000 -0.0883 -0.9961
vn -0.0000 -0.0722 0.9974
vn -0.8730 -0.0640 0.4836
vn 0.8730 -0.0640 -0.4836
vn 0.8730 -0.0640 0.4836
vn -0.8065 -0.3645 -0.4656
vn -0.0000 -0.3644 -0.9312
vn -0.0000 -0.9961 -0.0879
vn -0.0761 -0.9961 -0.0439
vn 0.6471 0.6646 -0.3736
vn 0.6471 0.6646 0.3736
vn 0.7983 0.3878 0.4609
vn 0.7983 0.3878 -0.4609
vn -0.6471 0.6646 0.3736
vn -0.6471 0.6646 -0.3736
vn -0.7983 0.3878 -0.4609
vn -0.7983 0.3878 0.4609
vn -0.0000 0.6646 -0.7472
vn -0.0000 0.3878 -0.9217
vn -0.0000 0.6646 0.7472
vn -0.0000 0.3878 0.9217
vn 0.0761 -0.9961 -0.0440
vn -0.0000 -0.9961 0.0879
vn -0.0000 -0.3644 0.9312
vn -0.8065 -0.3645 0.4656
vn -0.0761 -0.9961 0.0439
vn 0.8065 -0.3644 -0.4656
vn 0.8065 -0.3644 0.4656
vn 0.0761 -0.9961 0.0440
vn -0.0000 0.0224 -0.9997
vn 0.7069 0.0224 -0.7069
vn 0.7071 -0.0000 -0.7071
vn 0.9997 0.0224 -0.0000
vn 1.0000 -0.0000 -0.0000
vn 0.7069 0.0224 0.7069
vn 0.7071 -0.0000 0.7071
vn -0.0000 0.0224 0.9997
vn -0.7069 0.0224 0.7069
vn -0.7071 -0.0000 0.7071
vn 0.1186 0.9858 -0.1186
vn 0.1678 0.9858 0.0001
vn -0.9997 0.0224 -0.0000
vn -1.0000 -0.0000 -0.0000
vn -0.7069 0.0224 -0.7069
vn -0.7071 -0.0000 -0.7071
vn -0.9954 -0.0958 -0.0000
vn -0.6599 -0.0978 0.7450
vn 0.6599 -0.0978 0.7450
vn -0.0000 -0.0883 0.9961
vn 0.9954 -0.0958 -0.0000
vn 0.6599 -0.0978 -0.7450
vn -0.0000 0.9858 0.1677
vn -0.1187 0.9858 0.1186
vn -0.1186 0.9858 -0.1186
vn -0.0000 0.9858 -0.1677
vn 0.1185 0.9858 0.1188
vn -0.1678 0.9858 -0.0002
vt 0.687574 0.393386
vt 0.687574 0.393386
vt 0.687574 0.393386
vt 0.687574 0.393386
vt 0.687574 0.393386
vt 0.687574 0.393386
vt 0.687574 0.393386
vt 0.687574 0.393386
vt 0.687574 0.393386
vt 0.687574 0.393386
vt 0.687574 0.393386
vt 0.687574 0.393386
vt 0.687574 0.393386
vt 0.687574 0.393386
vt 0.687574 0.393386
vt 0.687574 0.393386
vt 0.687574 0.393386
vt 0.687574 0.393386
vt 0.687574 0.393386
vt 0.687574 0.393386
vt 0.687574 0.393386
vt 0.687574 0.393386
vt 0.687574 0.393386
vt 0.687574 0.393386
vt 0.687574 0.393386
vt 0.687574 0.393386
vt 0.687574 0.393386
vt 0.687574 0.393386
vt 0.687574 0.393386
vt 0.687574 0.393386
vt 0.687574 0.393386
vt 0.687574 0.393386
vt 0.687574 0.393386
vt 0.687574 0.393386
vt 0.687574 0.393386
vt 0.687574 0.393386
vt 0.687574 0.393386
vt 0.687574 0.393386
vt 0.687574 0.393386
vt 0.687574 0.393386
vt 0.687574 0.393386
vt 0.687574 0.393386
vt 0.687574 0.393386
vt 0.687574 0.393386
vt 0.687574 0.393386
vt 0.687574 0.393386
vt 0.687574 0.393386
vt 0.687574 0.393386
vt 0.687574 0.393386
vt 0.687574 0.393386
vt 0.687574 0.393386
vt 0.687574 0.393386
vt 0.687574 0.393386
vt 0.687574 0.393386
vt 0.687574 0.393386
vt 0.687574 0.393386
vt 0.687574 0.393386
vt 0.687574 0.393386
vt 0.687574 0.393386
vt 0.687574 0.393386
vt 0.687574 0.393386
vt 0.687574 0.393386
vt 0.687574 0.393386
vt 0.687574 0.393386
vt 0.687574 0.393386
vt 0.687574 0.393386
vt 0.687574 0.393386
vt 0.687574 0.393386
s 1
usemtl Material
f 2/2/1 12/12/2 18/18/3 13/13/4
f 1/1/5 2/2/1 4/4/6 3/3/7
f 3/3/7 4/4/6 6/6/8 5/5/9
f 5/5/9 6/6/8 8/8/10 7/7/11
f 7/7/11 8/8/10 10/10/12 9/9/13
f 9/9/13 10/10/12 12/12/2 11/11/14
f 11/11/14 12/12/2 2/2/1 1/1/5
f 13/13/4 45/45/15 31/31/16
f 10/10/12 8/8/10 16/16/17 17/17/18
f 6/6/8 4/4/6 14/14/19 15/15/20
f 12/12/2 10/10/12 17/17/18 18/18/3
f 4/4/6 2/2/1 13/13/4 14/14/19
f 8/8/10 6/6/8 15/15/20 16/16/17
f 64/64/21 63/63/22 25/25/23 30/30/24
f 3/3/25 5/5/26 21/21/27 20/20/28
f 9/9/29 11/11/30 24/24/31 23/23/32
f 1/1/33 3/3/25 20/20/28 19/19/34
f 5/5/26 7/7/35 22/22/36 21/21/27
f 11/11/30 1/1/33 19/19/34 24/24/31
f 26/26/37 28/28/38 30/30/24
f 66/66/39 65/65/40 29/29/41 28/28/38
f 68/68/42 67/67/43 27/27/44 26/26/37
f 65/65/40 64/64/21 30/30/24 29/29/41
f 67/67/43 66/66/39 28/28/38 27/27/44
f 63/63/22 68/68/42 26/26/37 25/25/23
f 62/62/5 32/32/45 34/34/46 55/55/47
f 55/55/47 34/34/46 36/36/48 56/56/49
f 56/56/49 36/36/48 38/38/50 57/57/51
f 57/57/51 38/38/50 40/40/52 58/58/11
f 58/58/11 40/40/52 42/42/53 59/59/54
f 36/36/48 34/34/46 48/48/55 49/49/56
f 59/59/54 42/42/53 44/44/57 60/60/58
f 60/60/58 44/44/57 46/46/59 61/61/60
f 18/18/3 43/43/61 45/45/15
f 17/17/18 43/43/61 18/18/3
f 16/16/17 41/41/62 17/17/18
f 16/16/17 37/37/63 39/39/64
f 15/15/20 35/35/65 37/37/63
f 14/14/19 35/35/65 15/15/20
f 13/13/4 33/33/66 14/14/19
f 13/13/4 18/18/3 45/45/15
f 17/17/18 41/41/62 43/43/61
f 16/16/17 39/39/64 41/41/62
f 16/16/17 15/15/20 37/37/63
f 14/14/19 33/33/66 35/35/65
f 13/13/4 31/31/16 33/33/66
f 42/42/53 40/40/52 51/51/67 52/52/68
f 32/32/45 46/46/59 54/54/69 47/47/70
f 34/34/46 32/32/45 47/47/70 48/48/55
f 38/38/50 36/36/48 49/49/56 50/50/71
f 44/44/57 42/42/53 52/52/68 53/53/72
f 40/40/52 38/38/50 50/50/71 51/51/67
f 46/46/59 44/44/57 53/53/72 54/54/69
f 49/49/56 47/47/70 53/53/72
f 31/31/16 62/62/5 55/55/47 33/33/66
f 33/33/66 55/55/47 56/56/49 35/35/65
f 35/35/65 56/56/49 57/57/51 37/37/63
f 37/37/63 57/57/51 58/58/11 39/39/64
f 39/39/64 58/58/11 59/59/54 41/41/62
f 41/41/62 59/59/54 60/60/58 43/43/61
f 43/43/61 60/60/58 61/61/60 45/45/15
f 45/45/15 61/61/60 62/62/5 31/31/16
f 19/19/34 20/20/28 68/68/42 63/63/22
f 21/21/27 22/22/36 66/66/39 67/67/43
f 23/23/32 24/24/31 64/64/21 65/65/40
f 20/20/28 21/21/27 67/67/43 68/68/42
f 22/22/36 23/23/32 65/65/40 66/66/39
f 24/24/31 19/19/34 63/63/22 64/64/21
f 61/61/60 46/46/59 32/32/45 62/62/5
f 7/7/35 9/9/29 23/23/32 22/22/36
f 49/49/56 48/48/55 47/47/70
f 47/47/70 54/54/69 53/53/72
f 53/53/72 52/52/68 49/49/56
f 52/52/68 51/51/67 49/49/56
f 51/51/67 50/50/71 49/49/56
f 30/30/24 25/25/23 26/26/37
f 26/26/37 27/27/44 28/28/38
f 28/28/38 29/29/41 30/30/24
